<svg xmlns="http://www.w3.org/2000/svg" xmlns:xlink="http://www.w3.org/1999/xlink" viewBox="0 0 1366 768"><defs><style>.cls-1{fill:url(#linear-gradient);}.cls-2{fill:#fff;}</style><linearGradient id="linear-gradient" y1="384" x2="1366" y2="384" gradientUnits="userSpaceOnUse"><stop offset="0" stop-color="#fff"/><stop offset="0" stop-color="#8300aa"/><stop offset="1"/></linearGradient></defs><title>Asset 3</title><g id="Layer_2" data-name="Layer 2"><g id="Layer_1-2" data-name="Layer 1"><rect class="cls-1" width="1366" height="768"/><path class="cls-2" d="M134.79,102H90.31A1.3,1.3,0,0,0,89,103.3V142a.79.79,0,0,0,0,.13,1.11,1.11,0,0,0,0,.25.88.88,0,0,0,.1.22,1.37,1.37,0,0,0,.13.2,1.21,1.21,0,0,0,.2.19l.09.09a.38.38,0,0,0,.1,0,1.22,1.22,0,0,0,.24.1l.26.05.11,0H134.8a1.42,1.42,0,0,0,.54-.12h0a.88.88,0,0,0,.15-.12.92.92,0,0,0,.22-.17.9.9,0,0,0,.14-.2,1.48,1.48,0,0,0,.13-.21,1.26,1.26,0,0,0,.05-.28,1,1,0,0,0,0-.17V103.29A1.3,1.3,0,0,0,134.79,102Zm-1.14,34.5-11.84-23.59a1.3,1.3,0,0,0-2.29-.06L110,129.51l-6.59-6.57a1.27,1.27,0,0,0-1.06-.37,1.31,1.31,0,0,0-1,.58l-9.3,14.43V104.43h41.59V136.5Z"/><ellipse class="cls-2" cx="103.5" cy="113.73" rx="6.53" ry="6.48"/><path class="cls-2" d="M150.69,120.19H147.8a1.3,1.3,0,0,0-1.3,1.3v28.77a3.91,3.91,0,0,1-3.92,3.89H106.21a1.3,1.3,0,0,0-1.31,1.29v2.26a1.31,1.31,0,0,0,1.31,1.3h44.48a1.3,1.3,0,0,0,1.31-1.3V121.49A1.31,1.31,0,0,0,150.69,120.19Z"/><path class="cls-2" d="M142.74,109.88h-2.89a1.31,1.31,0,0,0-1.31,1.3v31.2a3.9,3.9,0,0,1-3.92,3.89H98.26A1.3,1.3,0,0,0,97,147.56v2.26a1.31,1.31,0,0,0,1.31,1.3h44.48a1.31,1.31,0,0,0,1.31-1.3V111.17A1.3,1.3,0,0,0,142.74,109.88Z"/><path class="cls-2" d="M134.79,476H90.31A1.3,1.3,0,0,0,89,477.3V516a.79.79,0,0,0,0,.13,1.11,1.11,0,0,0,0,.25.88.88,0,0,0,.1.22,1.37,1.37,0,0,0,.13.2,1.21,1.21,0,0,0,.2.19l.09.09a.38.38,0,0,0,.1,0,1.22,1.22,0,0,0,.24.1l.26.05.11,0H134.8a1.42,1.42,0,0,0,.54-.12h0a.88.88,0,0,0,.15-.12.92.92,0,0,0,.22-.17.9.9,0,0,0,.14-.2,1.48,1.48,0,0,0,.13-.21,1.26,1.26,0,0,0,.05-.28,1,1,0,0,0,0-.17V477.29A1.3,1.3,0,0,0,134.79,476Zm-1.14,34.5-11.84-23.59a1.3,1.3,0,0,0-2.29-.06L110,503.51l-6.59-6.57a1.27,1.27,0,0,0-1.06-.37,1.31,1.31,0,0,0-1,.58l-9.3,14.43V478.43h41.59V510.5Z"/><ellipse class="cls-2" cx="103.5" cy="487.73" rx="6.53" ry="6.48"/><path class="cls-2" d="M150.69,494.19H147.8a1.3,1.3,0,0,0-1.3,1.3v28.77a3.91,3.91,0,0,1-3.92,3.89H106.21a1.3,1.3,0,0,0-1.31,1.29v2.26a1.31,1.31,0,0,0,1.31,1.3h44.48a1.3,1.3,0,0,0,1.31-1.3V495.49A1.31,1.31,0,0,0,150.69,494.19Z"/><path class="cls-2" d="M142.74,483.88h-2.89a1.31,1.31,0,0,0-1.31,1.3v31.2a3.9,3.9,0,0,1-3.92,3.89H98.26A1.3,1.3,0,0,0,97,521.56v2.26a1.31,1.31,0,0,0,1.31,1.3h44.48a1.31,1.31,0,0,0,1.31-1.3V485.17A1.3,1.3,0,0,0,142.74,483.88Z"/><path class="cls-2" d="M147,299.75a7.61,7.61,0,0,0-5.44,2.32,36.59,36.59,0,0,0-19.71-6.17l4-18.2,12.68,2.89a5.69,5.69,0,0,0,5.63,5.72,5.79,5.79,0,1,0-5.07-8.38l-14-3.14a1.34,1.34,0,0,0-1.58,1l-4.37,20.07a37,37,0,0,0-19.59,6.24A7.59,7.59,0,0,0,94,299.75c-8,0-10.6,10.88-3.28,14.6a16.41,16.41,0,0,0-.38,3.6c0,12.22,13.56,22.12,30.22,22.12s30.29-9.9,30.29-22.12a14.33,14.33,0,0,0-.44-3.66c7.17-3.74,4.53-14.54-3.42-14.54Zm-44.67,15.37a5.67,5.67,0,1,1,5.71,5.72,5.73,5.73,0,0,1-5.71-5.72Zm30.79,13.63c-5.23,5.3-20,5.3-25.22,0a1.38,1.38,0,1,1,1.9-2c4,4.16,17.24,4.23,21.41,0a1.38,1.38,0,0,1,1.91,2Zm-.11-7.9a5.75,5.75,0,1,1,5.7-5.72A5.69,5.69,0,0,1,133,320.85Z"/><path class="cls-2" d="M140,672.75a7.61,7.61,0,0,0-5.44,2.32,36.59,36.59,0,0,0-19.71-6.17l4-18.2,12.68,2.89a5.69,5.69,0,0,0,5.63,5.72,5.79,5.79,0,1,0-5.07-8.38l-14-3.14a1.34,1.34,0,0,0-1.58,1l-4.37,20.07a37,37,0,0,0-19.59,6.24A7.59,7.59,0,0,0,87,672.75c-8,0-10.6,10.88-3.28,14.6a16.41,16.41,0,0,0-.38,3.6c0,12.22,13.56,22.12,30.22,22.12s30.29-9.9,30.29-22.12a14.33,14.33,0,0,0-.44-3.66c7.17-3.74,4.53-14.54-3.42-14.54ZM95.36,688.12a5.67,5.67,0,1,1,5.71,5.72,5.73,5.73,0,0,1-5.71-5.72Zm30.79,13.63c-5.23,5.3-20,5.3-25.22,0a1.38,1.38,0,1,1,1.9-2c4,4.16,17.24,4.23,21.41,0a1.38,1.38,0,0,1,1.91,2Zm-.11-7.9a5.75,5.75,0,1,1,5.7-5.72A5.69,5.69,0,0,1,126,693.85Z"/><path class="cls-2" d="M278.79,24H234.31A1.3,1.3,0,0,0,233,25.3V64a.79.79,0,0,0,0,.13,1.11,1.11,0,0,0,.05.25.88.88,0,0,0,.1.22,1.37,1.37,0,0,0,.13.2,1.21,1.21,0,0,0,.2.19s.05.06.09.09a.38.38,0,0,0,.1,0,1.22,1.22,0,0,0,.24.1l.26,0,.11,0H278.8a1.42,1.42,0,0,0,.54-.12h0a.88.88,0,0,0,.15-.12.92.92,0,0,0,.22-.17.9.9,0,0,0,.14-.2,1.48,1.48,0,0,0,.13-.21,1.26,1.26,0,0,0,.05-.28,1,1,0,0,0,0-.17V25.29A1.3,1.3,0,0,0,278.79,24Zm-1.14,34.5L265.81,34.91a1.3,1.3,0,0,0-2.29-.06L254,51.51l-6.59-6.57a1.27,1.27,0,0,0-1.06-.37,1.31,1.31,0,0,0-1,.58l-9.3,14.43V26.43h41.59V58.5Z"/><ellipse class="cls-2" cx="247.5" cy="35.73" rx="6.53" ry="6.48"/><path class="cls-2" d="M294.69,42.19H291.8a1.3,1.3,0,0,0-1.3,1.3V72.26a3.91,3.91,0,0,1-3.92,3.89H250.21a1.3,1.3,0,0,0-1.31,1.29V79.7a1.31,1.31,0,0,0,1.31,1.3h44.48A1.3,1.3,0,0,0,296,79.7V43.49A1.31,1.31,0,0,0,294.69,42.19Z"/><path class="cls-2" d="M286.74,31.88h-2.89a1.31,1.31,0,0,0-1.31,1.3v31.2a3.9,3.9,0,0,1-3.92,3.89H242.26A1.3,1.3,0,0,0,241,69.56v2.26a1.31,1.31,0,0,0,1.31,1.3h44.48a1.31,1.31,0,0,0,1.31-1.3V33.17A1.3,1.3,0,0,0,286.74,31.88Z"/><path class="cls-2" d="M278.79,398H234.31a1.3,1.3,0,0,0-1.31,1.3V438a.79.79,0,0,0,0,.13,1.11,1.11,0,0,0,.05.25.88.88,0,0,0,.1.22,1.37,1.37,0,0,0,.13.2,1.21,1.21,0,0,0,.2.19l.09.09a.38.38,0,0,0,.1,0,1.22,1.22,0,0,0,.24.1l.26,0,.11,0H278.8a1.42,1.42,0,0,0,.54-.12h0a.88.88,0,0,0,.15-.12.92.92,0,0,0,.22-.17.9.9,0,0,0,.14-.2,1.48,1.48,0,0,0,.13-.21,1.26,1.26,0,0,0,.05-.28,1,1,0,0,0,0-.17V399.29A1.3,1.3,0,0,0,278.79,398Zm-1.14,34.5-11.84-23.59a1.3,1.3,0,0,0-2.29-.06L254,425.51l-6.59-6.57a1.27,1.27,0,0,0-1.06-.37,1.31,1.31,0,0,0-1,.58l-9.3,14.43V400.43h41.59V432.5Z"/><ellipse class="cls-2" cx="247.5" cy="409.73" rx="6.53" ry="6.48"/><path class="cls-2" d="M294.69,416.19H291.8a1.3,1.3,0,0,0-1.3,1.3v28.77a3.91,3.91,0,0,1-3.92,3.89H250.21a1.3,1.3,0,0,0-1.31,1.29v2.26a1.31,1.31,0,0,0,1.31,1.3h44.48a1.3,1.3,0,0,0,1.31-1.3V417.49A1.31,1.31,0,0,0,294.69,416.19Z"/><path class="cls-2" d="M286.74,405.88h-2.89a1.31,1.31,0,0,0-1.31,1.3v31.2a3.9,3.9,0,0,1-3.92,3.89H242.26a1.3,1.3,0,0,0-1.31,1.29v2.26a1.31,1.31,0,0,0,1.31,1.3h44.48a1.31,1.31,0,0,0,1.31-1.3V407.17A1.3,1.3,0,0,0,286.74,405.88Z"/><path class="cls-2" d="M291,221.75a7.61,7.61,0,0,0-5.44,2.32,36.59,36.59,0,0,0-19.71-6.17l4-18.2,12.68,2.89a5.69,5.69,0,0,0,5.63,5.72,5.79,5.79,0,1,0-5.07-8.38l-14-3.14a1.34,1.34,0,0,0-1.58,1l-4.37,20.07a37,37,0,0,0-19.59,6.24,7.59,7.59,0,0,0-5.52-2.38c-8,0-10.6,10.88-3.28,14.6a16.41,16.41,0,0,0-.38,3.6c0,12.22,13.56,22.12,30.22,22.12s30.29-9.9,30.29-22.12a14.33,14.33,0,0,0-.44-3.66c7.17-3.74,4.53-14.54-3.42-14.54Zm-44.67,15.37a5.67,5.67,0,1,1,5.71,5.72,5.73,5.73,0,0,1-5.71-5.72Zm30.79,13.63c-5.23,5.3-20,5.3-25.22,0a1.38,1.38,0,1,1,1.9-2c4,4.16,17.24,4.23,21.41,0a1.38,1.38,0,0,1,1.91,2Zm-.11-7.9a5.75,5.75,0,1,1,5.7-5.72A5.69,5.69,0,0,1,277,242.85Z"/><path class="cls-2" d="M284,594.75a7.61,7.61,0,0,0-5.44,2.32,36.59,36.59,0,0,0-19.71-6.17l4-18.2,12.68,2.89a5.69,5.69,0,0,0,5.63,5.72,5.79,5.79,0,1,0-5.07-8.38l-14-3.14a1.34,1.34,0,0,0-1.58,1l-4.37,20.07a37,37,0,0,0-19.59,6.24,7.59,7.59,0,0,0-5.52-2.38c-8,0-10.6,10.88-3.28,14.6a16.41,16.41,0,0,0-.38,3.6c0,12.22,13.56,22.12,30.22,22.12s30.29-9.9,30.29-22.12a14.33,14.33,0,0,0-.44-3.66c7.17-3.74,4.53-14.54-3.42-14.54Zm-44.67,15.37a5.67,5.67,0,1,1,5.71,5.72,5.73,5.73,0,0,1-5.71-5.72Zm30.79,13.63c-5.23,5.3-20,5.3-25.22,0a1.38,1.38,0,1,1,1.9-2c4,4.16,17.24,4.23,21.41,0a1.38,1.38,0,0,1,1.91,2Zm-.11-7.9a5.75,5.75,0,1,1,5.7-5.72A5.69,5.69,0,0,1,270,615.85Z"/><path class="cls-2" d="M451.79,100H407.31a1.3,1.3,0,0,0-1.31,1.3V140a.79.79,0,0,0,0,.13,1.11,1.11,0,0,0,.05.25.88.88,0,0,0,.1.22,1.37,1.37,0,0,0,.13.2,1.21,1.21,0,0,0,.2.19s.05.06.09.09a.38.38,0,0,0,.1,0,1.22,1.22,0,0,0,.24.1l.26.05.11,0H451.8a1.42,1.42,0,0,0,.54-.12h0a.88.88,0,0,0,.15-.12.92.92,0,0,0,.22-.17.9.9,0,0,0,.14-.2,1.48,1.48,0,0,0,.13-.21,1.26,1.26,0,0,0,.05-.28,1,1,0,0,0,0-.17V101.29A1.3,1.3,0,0,0,451.79,100Zm-1.14,34.5-11.84-23.59a1.3,1.3,0,0,0-2.29-.06L427,127.51l-6.59-6.57a1.27,1.27,0,0,0-1.06-.37,1.31,1.31,0,0,0-1,.58l-9.3,14.43V102.43h41.59V134.5Z"/><ellipse class="cls-2" cx="420.5" cy="111.73" rx="6.53" ry="6.48"/><path class="cls-2" d="M467.69,118.19H464.8a1.3,1.3,0,0,0-1.3,1.3v28.77a3.91,3.91,0,0,1-3.92,3.89H423.21a1.3,1.3,0,0,0-1.31,1.29v2.26a1.31,1.31,0,0,0,1.31,1.3h44.48a1.3,1.3,0,0,0,1.31-1.3V119.49A1.31,1.31,0,0,0,467.69,118.19Z"/><path class="cls-2" d="M459.74,107.88h-2.89a1.31,1.31,0,0,0-1.31,1.3v31.2a3.9,3.9,0,0,1-3.92,3.89H415.26a1.3,1.3,0,0,0-1.31,1.29v2.26a1.31,1.31,0,0,0,1.31,1.3h44.48a1.31,1.31,0,0,0,1.31-1.3V109.17A1.3,1.3,0,0,0,459.74,107.88Z"/><path class="cls-2" d="M451.79,474H407.31a1.3,1.3,0,0,0-1.31,1.3V514a.79.79,0,0,0,0,.13,1.11,1.11,0,0,0,.05.25.88.88,0,0,0,.1.22,1.37,1.37,0,0,0,.13.2,1.21,1.21,0,0,0,.2.19l.09.09a.38.38,0,0,0,.1,0,1.22,1.22,0,0,0,.24.1l.26.05.11,0H451.8a1.42,1.42,0,0,0,.54-.12h0a.88.88,0,0,0,.15-.12.92.92,0,0,0,.22-.17.9.9,0,0,0,.14-.2,1.48,1.48,0,0,0,.13-.21,1.26,1.26,0,0,0,.05-.28,1,1,0,0,0,0-.17V475.29A1.3,1.3,0,0,0,451.79,474Zm-1.14,34.5-11.84-23.59a1.3,1.3,0,0,0-2.29-.06L427,501.51l-6.59-6.57a1.27,1.27,0,0,0-1.06-.37,1.31,1.31,0,0,0-1,.58l-9.3,14.43V476.43h41.59V508.5Z"/><ellipse class="cls-2" cx="420.5" cy="485.73" rx="6.53" ry="6.48"/><path class="cls-2" d="M467.69,492.19H464.8a1.3,1.3,0,0,0-1.3,1.3v28.77a3.91,3.91,0,0,1-3.92,3.89H423.21a1.3,1.3,0,0,0-1.31,1.29v2.26a1.31,1.31,0,0,0,1.31,1.3h44.48a1.3,1.3,0,0,0,1.31-1.3V493.49A1.31,1.31,0,0,0,467.69,492.19Z"/><path class="cls-2" d="M459.74,481.88h-2.89a1.31,1.31,0,0,0-1.31,1.3v31.2a3.9,3.9,0,0,1-3.92,3.89H415.26a1.3,1.3,0,0,0-1.31,1.29v2.26a1.31,1.31,0,0,0,1.31,1.3h44.48a1.31,1.31,0,0,0,1.31-1.3V483.17A1.3,1.3,0,0,0,459.74,481.88Z"/><path class="cls-2" d="M464,297.75a7.61,7.61,0,0,0-5.44,2.32,36.59,36.59,0,0,0-19.71-6.17l4-18.2,12.68,2.89a5.69,5.69,0,0,0,5.63,5.72,5.79,5.79,0,1,0-5.07-8.38l-14-3.14a1.34,1.34,0,0,0-1.58,1l-4.37,20.07a37,37,0,0,0-19.59,6.24,7.59,7.59,0,0,0-5.52-2.38c-8,0-10.6,10.88-3.28,14.6a16.41,16.41,0,0,0-.38,3.6c0,12.22,13.56,22.12,30.22,22.12s30.29-9.9,30.29-22.12a14.33,14.33,0,0,0-.44-3.66c7.17-3.74,4.53-14.54-3.42-14.54Zm-44.67,15.37a5.67,5.67,0,1,1,5.71,5.72,5.73,5.73,0,0,1-5.71-5.72Zm30.79,13.63c-5.23,5.3-20,5.3-25.22,0a1.38,1.38,0,1,1,1.9-2c4,4.16,17.24,4.23,21.41,0a1.38,1.38,0,0,1,1.91,2Zm-.11-7.9a5.75,5.75,0,1,1,5.7-5.72A5.69,5.69,0,0,1,450,318.85Z"/><path class="cls-2" d="M457,670.75a7.61,7.61,0,0,0-5.44,2.32,36.59,36.59,0,0,0-19.71-6.17l4-18.2,12.68,2.89a5.69,5.69,0,0,0,5.63,5.72,5.79,5.79,0,1,0-5.07-8.38l-14-3.14a1.34,1.34,0,0,0-1.58,1l-4.37,20.07a37,37,0,0,0-19.59,6.24,7.59,7.59,0,0,0-5.52-2.38c-8,0-10.6,10.88-3.28,14.6a16.41,16.41,0,0,0-.38,3.6c0,12.22,13.56,22.12,30.22,22.12s30.29-9.9,30.29-22.12a14.33,14.33,0,0,0-.44-3.66c7.17-3.74,4.53-14.54-3.42-14.54Zm-44.67,15.37a5.67,5.67,0,1,1,5.71,5.72,5.73,5.73,0,0,1-5.71-5.72Zm30.79,13.63c-5.23,5.3-20,5.3-25.22,0a1.38,1.38,0,1,1,1.9-2c4,4.16,17.24,4.23,21.41,0a1.38,1.38,0,0,1,1.91,2Zm-.11-7.9a5.75,5.75,0,1,1,5.7-5.72A5.69,5.69,0,0,1,443,691.85Z"/><path class="cls-2" d="M595.79,22H551.31A1.3,1.3,0,0,0,550,23.3V62a.79.79,0,0,0,0,.13,1.11,1.11,0,0,0,.05.25.88.88,0,0,0,.1.22,1.37,1.37,0,0,0,.13.2,1.21,1.21,0,0,0,.2.19s0,.06.09.09a.38.38,0,0,0,.1,0,1.22,1.22,0,0,0,.24.1l.26.05.11,0H595.8a1.42,1.42,0,0,0,.54-.12h0a.88.88,0,0,0,.15-.12.92.92,0,0,0,.22-.17.9.9,0,0,0,.14-.2,1.48,1.48,0,0,0,.13-.21,1.26,1.26,0,0,0,0-.28,1,1,0,0,0,0-.17V23.29A1.3,1.3,0,0,0,595.79,22Zm-1.14,34.5L582.81,32.91a1.3,1.3,0,0,0-2.29-.06L571,49.51l-6.59-6.57a1.27,1.27,0,0,0-1.06-.37,1.31,1.31,0,0,0-1,.58l-9.3,14.43V24.43h41.59V56.5Z"/><ellipse class="cls-2" cx="564.5" cy="33.73" rx="6.53" ry="6.48"/><path class="cls-2" d="M611.69,40.19H608.8a1.3,1.3,0,0,0-1.3,1.3V70.26a3.91,3.91,0,0,1-3.92,3.89H567.21a1.3,1.3,0,0,0-1.31,1.29V77.7a1.31,1.31,0,0,0,1.31,1.3h44.48A1.3,1.3,0,0,0,613,77.7V41.49A1.31,1.31,0,0,0,611.69,40.19Z"/><path class="cls-2" d="M603.74,29.88h-2.89a1.31,1.31,0,0,0-1.31,1.3v31.2a3.9,3.9,0,0,1-3.92,3.89H559.26A1.3,1.3,0,0,0,558,67.56v2.26a1.31,1.31,0,0,0,1.31,1.3h44.48a1.31,1.31,0,0,0,1.31-1.3V31.17A1.3,1.3,0,0,0,603.74,29.88Z"/><path class="cls-2" d="M595.79,396H551.31a1.3,1.3,0,0,0-1.31,1.3V436a.79.79,0,0,0,0,.13,1.11,1.11,0,0,0,.05.25.88.88,0,0,0,.1.22,1.37,1.37,0,0,0,.13.2,1.21,1.21,0,0,0,.2.19s0,.06.09.09a.38.38,0,0,0,.1,0,1.22,1.22,0,0,0,.24.1l.26,0,.11,0H595.8a1.42,1.42,0,0,0,.54-.12h0a.88.88,0,0,0,.15-.12.92.92,0,0,0,.22-.17.9.9,0,0,0,.14-.2,1.48,1.48,0,0,0,.13-.21,1.26,1.26,0,0,0,0-.28,1,1,0,0,0,0-.17V397.29A1.3,1.3,0,0,0,595.79,396Zm-1.14,34.5-11.84-23.59a1.3,1.3,0,0,0-2.29-.06L571,423.51l-6.59-6.57a1.27,1.27,0,0,0-1.06-.37,1.31,1.31,0,0,0-1,.58l-9.3,14.43V398.43h41.59V430.5Z"/><ellipse class="cls-2" cx="564.5" cy="407.73" rx="6.53" ry="6.48"/><path class="cls-2" d="M611.69,414.19H608.8a1.3,1.3,0,0,0-1.3,1.3v28.77a3.91,3.91,0,0,1-3.92,3.89H567.21a1.3,1.3,0,0,0-1.31,1.29v2.26a1.31,1.31,0,0,0,1.31,1.3h44.48a1.3,1.3,0,0,0,1.31-1.3V415.49A1.31,1.31,0,0,0,611.69,414.19Z"/><path class="cls-2" d="M603.74,403.88h-2.89a1.31,1.31,0,0,0-1.31,1.3v31.2a3.9,3.9,0,0,1-3.92,3.89H559.26a1.3,1.3,0,0,0-1.31,1.29v2.26a1.31,1.31,0,0,0,1.31,1.3h44.48a1.31,1.31,0,0,0,1.31-1.3V405.17A1.3,1.3,0,0,0,603.74,403.88Z"/><path class="cls-2" d="M608,219.75a7.61,7.61,0,0,0-5.44,2.32,36.59,36.59,0,0,0-19.71-6.17l4-18.2,12.68,2.89a5.69,5.69,0,0,0,5.63,5.72,5.79,5.79,0,1,0-5.07-8.38l-14-3.14a1.34,1.34,0,0,0-1.58,1l-4.37,20.07a37,37,0,0,0-19.59,6.24,7.59,7.59,0,0,0-5.52-2.38c-8,0-10.6,10.88-3.28,14.6a16.41,16.41,0,0,0-.38,3.6c0,12.22,13.56,22.12,30.22,22.12s30.29-9.9,30.29-22.12a14.33,14.33,0,0,0-.44-3.66c7.17-3.74,4.53-14.54-3.42-14.54Zm-44.67,15.37a5.67,5.67,0,1,1,5.71,5.72,5.73,5.73,0,0,1-5.71-5.72Zm30.79,13.63c-5.23,5.3-20,5.3-25.22,0a1.38,1.38,0,0,1,1.9-2c4,4.16,17.24,4.23,21.41,0a1.38,1.38,0,0,1,1.91,2Zm-.11-7.9a5.75,5.75,0,1,1,5.7-5.72A5.69,5.69,0,0,1,594,240.85Z"/><path class="cls-2" d="M601,592.75a7.61,7.61,0,0,0-5.44,2.32,36.59,36.59,0,0,0-19.71-6.17l4-18.2,12.68,2.89a5.69,5.69,0,0,0,5.63,5.72,5.79,5.79,0,1,0-5.07-8.38l-14-3.14a1.34,1.34,0,0,0-1.58,1l-4.37,20.07a37,37,0,0,0-19.59,6.24,7.59,7.59,0,0,0-5.52-2.38c-8,0-10.6,10.88-3.28,14.6a16.41,16.41,0,0,0-.38,3.6c0,12.22,13.56,22.12,30.22,22.12s30.29-9.9,30.29-22.12a14.33,14.33,0,0,0-.44-3.66c7.17-3.74,4.53-14.54-3.42-14.54Zm-44.67,15.37a5.67,5.67,0,1,1,5.71,5.72,5.73,5.73,0,0,1-5.71-5.72Zm30.79,13.63c-5.23,5.3-20,5.3-25.22,0a1.38,1.38,0,0,1,1.9-2c4,4.16,17.24,4.23,21.41,0a1.38,1.38,0,0,1,1.91,2Zm-.11-7.9a5.75,5.75,0,1,1,5.7-5.72A5.69,5.69,0,0,1,587,613.85Z"/><path class="cls-2" d="M738.79,106H694.31a1.3,1.3,0,0,0-1.31,1.3V146a.79.79,0,0,0,0,.13,1.11,1.11,0,0,0,.05.25.88.88,0,0,0,.1.22,1.37,1.37,0,0,0,.13.2,1.21,1.21,0,0,0,.2.19s0,.06.09.09a.38.38,0,0,0,.1,0,1.22,1.22,0,0,0,.24.1l.26.05.11,0H738.8a1.42,1.42,0,0,0,.54-.12h0a.88.88,0,0,0,.15-.12.92.92,0,0,0,.22-.17.9.9,0,0,0,.14-.2,1.48,1.48,0,0,0,.13-.21,1.26,1.26,0,0,0,0-.28,1,1,0,0,0,0-.17V107.29A1.3,1.3,0,0,0,738.79,106Zm-1.14,34.5-11.84-23.59a1.3,1.3,0,0,0-2.29-.06L714,133.51l-6.59-6.57a1.27,1.27,0,0,0-1.06-.37,1.31,1.31,0,0,0-1,.58l-9.3,14.43V108.43h41.59V140.5Z"/><ellipse class="cls-2" cx="707.5" cy="117.73" rx="6.53" ry="6.48"/><path class="cls-2" d="M754.69,124.19H751.8a1.3,1.3,0,0,0-1.3,1.3v28.77a3.91,3.91,0,0,1-3.92,3.89H710.21a1.3,1.3,0,0,0-1.31,1.29v2.26a1.31,1.31,0,0,0,1.31,1.3h44.48a1.3,1.3,0,0,0,1.31-1.3V125.49A1.31,1.31,0,0,0,754.69,124.19Z"/><path class="cls-2" d="M746.74,113.88h-2.89a1.31,1.31,0,0,0-1.31,1.3v31.2a3.9,3.9,0,0,1-3.92,3.89H702.26a1.3,1.3,0,0,0-1.31,1.29v2.26a1.31,1.31,0,0,0,1.31,1.3h44.48a1.31,1.31,0,0,0,1.31-1.3V115.17A1.3,1.3,0,0,0,746.74,113.88Z"/><path class="cls-2" d="M738.79,480H694.31a1.3,1.3,0,0,0-1.31,1.3V520a.79.79,0,0,0,0,.13,1.11,1.11,0,0,0,.05.25.88.88,0,0,0,.1.22,1.37,1.37,0,0,0,.13.2,1.21,1.21,0,0,0,.2.19s0,.06.09.09a.38.38,0,0,0,.1,0,1.22,1.22,0,0,0,.24.1l.26.05.11,0H738.8a1.42,1.42,0,0,0,.54-.12h0a.88.88,0,0,0,.15-.12.92.92,0,0,0,.22-.17.9.9,0,0,0,.14-.2,1.48,1.48,0,0,0,.13-.21,1.26,1.26,0,0,0,0-.28,1,1,0,0,0,0-.17V481.29A1.3,1.3,0,0,0,738.79,480Zm-1.14,34.5-11.84-23.59a1.3,1.3,0,0,0-2.29-.06L714,507.51l-6.59-6.57a1.27,1.27,0,0,0-1.06-.37,1.31,1.31,0,0,0-1,.58l-9.3,14.43V482.43h41.59V514.5Z"/><ellipse class="cls-2" cx="707.5" cy="491.73" rx="6.53" ry="6.48"/><path class="cls-2" d="M754.69,498.19H751.8a1.3,1.3,0,0,0-1.3,1.3v28.77a3.91,3.91,0,0,1-3.92,3.89H710.21a1.3,1.3,0,0,0-1.31,1.29v2.26a1.31,1.31,0,0,0,1.31,1.3h44.48a1.3,1.3,0,0,0,1.31-1.3V499.49A1.31,1.31,0,0,0,754.69,498.19Z"/><path class="cls-2" d="M746.74,487.88h-2.89a1.31,1.31,0,0,0-1.31,1.3v31.2a3.9,3.9,0,0,1-3.92,3.89H702.26a1.3,1.3,0,0,0-1.31,1.29v2.26a1.31,1.31,0,0,0,1.31,1.3h44.48a1.31,1.31,0,0,0,1.31-1.3V489.17A1.3,1.3,0,0,0,746.74,487.88Z"/><path class="cls-2" d="M751,303.75a7.61,7.61,0,0,0-5.44,2.32,36.59,36.59,0,0,0-19.71-6.17l4-18.2,12.68,2.89a5.69,5.69,0,0,0,5.63,5.72,5.79,5.79,0,1,0-5.07-8.38l-14-3.14a1.34,1.34,0,0,0-1.58,1l-4.37,20.07a37,37,0,0,0-19.59,6.24,7.59,7.59,0,0,0-5.52-2.38c-8,0-10.6,10.88-3.28,14.6a16.41,16.41,0,0,0-.38,3.6c0,12.22,13.56,22.12,30.22,22.12s30.29-9.9,30.29-22.12a14.33,14.33,0,0,0-.44-3.66c7.17-3.74,4.53-14.54-3.42-14.54Zm-44.67,15.37a5.67,5.67,0,1,1,5.71,5.72,5.73,5.73,0,0,1-5.71-5.72Zm30.79,13.63c-5.23,5.3-20,5.3-25.22,0a1.38,1.38,0,0,1,1.9-2c4,4.16,17.24,4.23,21.41,0a1.38,1.38,0,0,1,1.91,2Zm-.11-7.9a5.75,5.75,0,1,1,5.7-5.72A5.69,5.69,0,0,1,737,324.85Z"/><path class="cls-2" d="M744,676.75a7.61,7.61,0,0,0-5.44,2.32,36.59,36.59,0,0,0-19.71-6.17l4-18.2,12.68,2.89a5.69,5.69,0,0,0,5.63,5.72,5.79,5.79,0,1,0-5.07-8.38l-14-3.14a1.34,1.34,0,0,0-1.58,1l-4.37,20.07a37,37,0,0,0-19.59,6.24,7.59,7.59,0,0,0-5.52-2.38c-8,0-10.6,10.88-3.28,14.6a16.41,16.41,0,0,0-.38,3.6c0,12.22,13.56,22.12,30.22,22.12s30.29-9.9,30.29-22.12a14.33,14.33,0,0,0-.44-3.66c7.17-3.74,4.53-14.54-3.42-14.54Zm-44.67,15.37a5.67,5.67,0,1,1,5.71,5.72,5.73,5.73,0,0,1-5.71-5.72Zm30.79,13.63c-5.23,5.3-20,5.3-25.22,0a1.38,1.38,0,0,1,1.9-2c4,4.16,17.24,4.23,21.41,0a1.38,1.38,0,0,1,1.91,2Zm-.11-7.9a5.75,5.75,0,1,1,5.7-5.72A5.69,5.69,0,0,1,730,697.85Z"/><path class="cls-2" d="M882.79,28H838.31A1.3,1.3,0,0,0,837,29.3V68a.79.79,0,0,0,0,.13,1.11,1.11,0,0,0,.05.25.88.88,0,0,0,.1.22,1.37,1.37,0,0,0,.13.2,1.21,1.21,0,0,0,.2.19s0,.06.09.09a.38.38,0,0,0,.1,0,1.22,1.22,0,0,0,.24.1l.26,0,.11,0H882.8a1.42,1.42,0,0,0,.54-.12h0a.88.88,0,0,0,.15-.12.92.92,0,0,0,.22-.17.9.9,0,0,0,.14-.2,1.48,1.48,0,0,0,.13-.21,1.26,1.26,0,0,0,0-.28,1,1,0,0,0,0-.17V29.29A1.3,1.3,0,0,0,882.79,28Zm-1.14,34.5L869.81,38.91a1.3,1.3,0,0,0-2.29-.06L858,55.51l-6.59-6.57a1.27,1.27,0,0,0-1.06-.37,1.31,1.31,0,0,0-1,.58l-9.3,14.43V30.43h41.59V62.5Z"/><ellipse class="cls-2" cx="851.5" cy="39.73" rx="6.53" ry="6.48"/><path class="cls-2" d="M898.69,46.19H895.8a1.3,1.3,0,0,0-1.3,1.3V76.26a3.91,3.91,0,0,1-3.92,3.89H854.21a1.3,1.3,0,0,0-1.31,1.29V83.7a1.31,1.31,0,0,0,1.31,1.3h44.48A1.3,1.3,0,0,0,900,83.7V47.49A1.31,1.31,0,0,0,898.69,46.19Z"/><path class="cls-2" d="M890.74,35.88h-2.89a1.31,1.31,0,0,0-1.31,1.3v31.2a3.9,3.9,0,0,1-3.92,3.89H846.26A1.3,1.3,0,0,0,845,73.56v2.26a1.31,1.31,0,0,0,1.31,1.3h44.48a1.31,1.31,0,0,0,1.31-1.3V37.17A1.3,1.3,0,0,0,890.74,35.88Z"/><path class="cls-2" d="M882.79,402H838.31a1.3,1.3,0,0,0-1.31,1.3V442a.79.79,0,0,0,0,.13,1.11,1.11,0,0,0,.05.25.88.88,0,0,0,.1.22,1.37,1.37,0,0,0,.13.2,1.21,1.21,0,0,0,.2.19s0,.06.09.09a.38.38,0,0,0,.1,0,1.22,1.22,0,0,0,.24.1l.26,0,.11,0H882.8a1.42,1.42,0,0,0,.54-.12h0a.88.88,0,0,0,.15-.12.92.92,0,0,0,.22-.17.9.9,0,0,0,.14-.2,1.48,1.48,0,0,0,.13-.21,1.26,1.26,0,0,0,0-.28,1,1,0,0,0,0-.17V403.29A1.3,1.3,0,0,0,882.79,402Zm-1.14,34.5-11.84-23.59a1.3,1.3,0,0,0-2.29-.06L858,429.51l-6.59-6.57a1.27,1.27,0,0,0-1.06-.37,1.31,1.31,0,0,0-1,.58l-9.3,14.43V404.43h41.59V436.5Z"/><ellipse class="cls-2" cx="851.5" cy="413.73" rx="6.53" ry="6.48"/><path class="cls-2" d="M898.69,420.19H895.8a1.3,1.3,0,0,0-1.3,1.3v28.77a3.91,3.91,0,0,1-3.92,3.89H854.21a1.3,1.3,0,0,0-1.31,1.29v2.26a1.31,1.31,0,0,0,1.31,1.3h44.48a1.3,1.3,0,0,0,1.31-1.3V421.49A1.31,1.31,0,0,0,898.69,420.19Z"/><path class="cls-2" d="M890.74,409.88h-2.89a1.31,1.31,0,0,0-1.31,1.3v31.2a3.9,3.9,0,0,1-3.92,3.89H846.26a1.3,1.3,0,0,0-1.31,1.29v2.26a1.31,1.31,0,0,0,1.31,1.3h44.48a1.31,1.31,0,0,0,1.31-1.3V411.17A1.3,1.3,0,0,0,890.74,409.88Z"/><path class="cls-2" d="M895,225.75a7.61,7.61,0,0,0-5.44,2.32,36.59,36.59,0,0,0-19.71-6.17l4-18.2,12.68,2.89a5.69,5.69,0,0,0,5.63,5.72,5.79,5.79,0,1,0-5.07-8.38l-14-3.14a1.34,1.34,0,0,0-1.58,1l-4.37,20.07a37,37,0,0,0-19.59,6.24,7.59,7.59,0,0,0-5.52-2.38c-8,0-10.6,10.88-3.28,14.6a16.41,16.41,0,0,0-.38,3.6c0,12.22,13.56,22.12,30.22,22.12s30.29-9.9,30.29-22.12a14.33,14.33,0,0,0-.44-3.66c7.17-3.74,4.53-14.54-3.42-14.54Zm-44.67,15.37a5.67,5.67,0,1,1,5.71,5.72,5.73,5.73,0,0,1-5.71-5.72Zm30.79,13.63c-5.23,5.3-20,5.3-25.22,0a1.38,1.38,0,0,1,1.9-2c4,4.16,17.24,4.23,21.41,0a1.38,1.38,0,0,1,1.91,2Zm-.11-7.9a5.75,5.75,0,1,1,5.7-5.72A5.69,5.69,0,0,1,881,246.85Z"/><path class="cls-2" d="M888,598.75a7.61,7.61,0,0,0-5.44,2.32,36.59,36.59,0,0,0-19.71-6.17l4-18.2,12.68,2.89a5.69,5.69,0,0,0,5.63,5.72,5.79,5.79,0,1,0-5.07-8.38l-14-3.14a1.34,1.34,0,0,0-1.58,1l-4.37,20.07a37,37,0,0,0-19.59,6.24,7.59,7.59,0,0,0-5.52-2.38c-8,0-10.6,10.88-3.28,14.6a16.41,16.41,0,0,0-.38,3.6c0,12.22,13.56,22.12,30.22,22.12s30.29-9.9,30.29-22.12a14.33,14.33,0,0,0-.44-3.66c7.17-3.74,4.53-14.54-3.42-14.54Zm-44.67,15.37a5.67,5.67,0,1,1,5.71,5.72,5.73,5.73,0,0,1-5.71-5.72Zm30.79,13.63c-5.23,5.3-20,5.3-25.22,0a1.38,1.38,0,0,1,1.9-2c4,4.16,17.24,4.23,21.41,0a1.38,1.38,0,0,1,1.91,2Zm-.11-7.9a5.75,5.75,0,1,1,5.7-5.72A5.69,5.69,0,0,1,874,619.85Z"/><path class="cls-2" d="M1018.79,117H974.31a1.3,1.3,0,0,0-1.31,1.3V157a.79.79,0,0,0,0,.13,1.11,1.11,0,0,0,.05.25.88.88,0,0,0,.1.22,1.37,1.37,0,0,0,.13.2,1.21,1.21,0,0,0,.2.19s0,.06.09.09a.38.38,0,0,0,.1,0,1.22,1.22,0,0,0,.24.1l.26.05.11,0h44.49a1.42,1.42,0,0,0,.54-.12h0a.88.88,0,0,0,.15-.12.92.92,0,0,0,.22-.17.9.9,0,0,0,.14-.2,1.48,1.48,0,0,0,.13-.21,1.26,1.26,0,0,0,0-.28,1,1,0,0,0,0-.17V118.29A1.3,1.3,0,0,0,1018.79,117Zm-1.14,34.5-11.84-23.59a1.3,1.3,0,0,0-2.29-.06L994,144.51l-6.59-6.57a1.27,1.27,0,0,0-1.06-.37,1.31,1.31,0,0,0-1,.58l-9.3,14.43V119.43h41.59V151.5Z"/><ellipse class="cls-2" cx="987.5" cy="128.73" rx="6.53" ry="6.48"/><path class="cls-2" d="M1034.69,135.19h-2.89a1.3,1.3,0,0,0-1.3,1.3v28.77a3.91,3.91,0,0,1-3.92,3.89H990.21a1.3,1.3,0,0,0-1.31,1.29v2.26a1.31,1.31,0,0,0,1.31,1.3h44.48a1.3,1.3,0,0,0,1.31-1.3V136.49A1.31,1.31,0,0,0,1034.69,135.19Z"/><path class="cls-2" d="M1026.74,124.88h-2.89a1.31,1.31,0,0,0-1.31,1.3v31.2a3.9,3.9,0,0,1-3.92,3.89H982.26a1.3,1.3,0,0,0-1.31,1.29v2.26a1.31,1.31,0,0,0,1.31,1.3h44.48a1.31,1.31,0,0,0,1.31-1.3V126.17A1.3,1.3,0,0,0,1026.74,124.88Z"/><path class="cls-2" d="M1018.79,491H974.31a1.3,1.3,0,0,0-1.31,1.3V531a.79.79,0,0,0,0,.13,1.11,1.11,0,0,0,.05.25.88.88,0,0,0,.1.22,1.37,1.37,0,0,0,.13.2,1.21,1.21,0,0,0,.2.19s0,.06.09.09a.38.38,0,0,0,.1,0,1.22,1.22,0,0,0,.24.1l.26.05.11,0h44.49a1.42,1.42,0,0,0,.54-.12h0a.88.88,0,0,0,.15-.12.92.92,0,0,0,.22-.17.9.9,0,0,0,.14-.2,1.48,1.48,0,0,0,.13-.21,1.26,1.26,0,0,0,0-.28,1,1,0,0,0,0-.17V492.29A1.3,1.3,0,0,0,1018.79,491Zm-1.14,34.5-11.84-23.59a1.3,1.3,0,0,0-2.29-.06L994,518.51l-6.59-6.57a1.27,1.27,0,0,0-1.06-.37,1.31,1.31,0,0,0-1,.58l-9.3,14.43V493.43h41.59V525.5Z"/><ellipse class="cls-2" cx="987.5" cy="502.73" rx="6.53" ry="6.48"/><path class="cls-2" d="M1034.69,509.19h-2.89a1.3,1.3,0,0,0-1.3,1.3v28.77a3.91,3.91,0,0,1-3.92,3.89H990.21a1.3,1.3,0,0,0-1.31,1.29v2.26a1.31,1.31,0,0,0,1.31,1.3h44.48a1.3,1.3,0,0,0,1.31-1.3V510.49A1.31,1.31,0,0,0,1034.69,509.19Z"/><path class="cls-2" d="M1026.74,498.88h-2.89a1.31,1.31,0,0,0-1.31,1.3v31.2a3.9,3.9,0,0,1-3.92,3.89H982.26a1.3,1.3,0,0,0-1.31,1.29v2.26a1.31,1.31,0,0,0,1.31,1.3h44.48a1.31,1.31,0,0,0,1.31-1.3V500.17A1.3,1.3,0,0,0,1026.74,498.88Z"/><path class="cls-2" d="M1031,314.75a7.61,7.61,0,0,0-5.44,2.32,36.59,36.59,0,0,0-19.71-6.17l4-18.2,12.68,2.89a5.69,5.69,0,0,0,5.63,5.72,5.79,5.79,0,1,0-5.07-8.38l-14-3.14a1.34,1.34,0,0,0-1.58,1l-4.37,20.07a37,37,0,0,0-19.59,6.24,7.59,7.59,0,0,0-5.52-2.38c-8,0-10.6,10.88-3.28,14.6a16.41,16.41,0,0,0-.38,3.6c0,12.22,13.56,22.12,30.22,22.12s30.29-9.9,30.29-22.12a14.33,14.33,0,0,0-.44-3.66c7.17-3.74,4.53-14.54-3.42-14.54Zm-44.67,15.37a5.67,5.67,0,1,1,5.71,5.72,5.73,5.73,0,0,1-5.71-5.72Zm30.79,13.63c-5.23,5.3-20,5.3-25.22,0a1.38,1.38,0,0,1,1.9-2c4,4.16,17.24,4.23,21.41,0a1.38,1.38,0,0,1,1.91,2Zm-.11-7.9a5.75,5.75,0,1,1,5.7-5.72A5.69,5.69,0,0,1,1017,335.85Z"/><path class="cls-2" d="M1024,687.75a7.61,7.61,0,0,0-5.44,2.32,36.59,36.59,0,0,0-19.71-6.17l4-18.2,12.68,2.89a5.69,5.69,0,0,0,5.63,5.72,5.79,5.79,0,1,0-5.07-8.38l-14-3.14a1.34,1.34,0,0,0-1.58,1l-4.37,20.07a37,37,0,0,0-19.59,6.24,7.59,7.59,0,0,0-5.52-2.38c-8,0-10.6,10.88-3.28,14.6a16.41,16.41,0,0,0-.38,3.6c0,12.22,13.56,22.12,30.22,22.12s30.29-9.9,30.29-22.12a14.33,14.33,0,0,0-.44-3.66c7.17-3.74,4.53-14.54-3.42-14.54Zm-44.67,15.37a5.67,5.67,0,1,1,5.71,5.72,5.73,5.73,0,0,1-5.71-5.72Zm30.79,13.63c-5.23,5.3-20,5.3-25.22,0a1.38,1.38,0,0,1,1.9-2c4,4.16,17.24,4.23,21.41,0a1.38,1.38,0,0,1,1.91,2Zm-.11-7.9a5.75,5.75,0,1,1,5.7-5.72A5.69,5.69,0,0,1,1010,708.85Z"/><path class="cls-2" d="M1162.79,39h-44.48a1.3,1.3,0,0,0-1.31,1.3V79a.79.79,0,0,0,0,.13,1.11,1.11,0,0,0,0,.25.88.88,0,0,0,.1.22,1.37,1.37,0,0,0,.13.2,1.21,1.21,0,0,0,.2.19s0,.06.09.09a.38.38,0,0,0,.1,0,1.22,1.22,0,0,0,.24.1l.26,0,.11,0h44.49a1.42,1.42,0,0,0,.54-.12h0a.88.88,0,0,0,.15-.12.92.92,0,0,0,.22-.17.9.9,0,0,0,.14-.2,1.48,1.48,0,0,0,.13-.21,1.26,1.26,0,0,0,0-.28,1,1,0,0,0,0-.17V40.29A1.3,1.3,0,0,0,1162.79,39Zm-1.14,34.5-11.84-23.59a1.3,1.3,0,0,0-2.29-.06L1138,66.51l-6.59-6.57a1.27,1.27,0,0,0-1.06-.37,1.31,1.31,0,0,0-1,.58l-9.3,14.43V41.43h41.59V73.5Z"/><ellipse class="cls-2" cx="1131.5" cy="50.73" rx="6.53" ry="6.48"/><path class="cls-2" d="M1178.69,57.19h-2.89a1.3,1.3,0,0,0-1.3,1.3V87.26a3.91,3.91,0,0,1-3.92,3.89h-36.37a1.3,1.3,0,0,0-1.31,1.29V94.7a1.31,1.31,0,0,0,1.31,1.3h44.48a1.3,1.3,0,0,0,1.31-1.3V58.49A1.31,1.31,0,0,0,1178.69,57.19Z"/><path class="cls-2" d="M1170.74,46.88h-2.89a1.31,1.31,0,0,0-1.31,1.3v31.2a3.9,3.9,0,0,1-3.92,3.89h-36.36a1.3,1.3,0,0,0-1.31,1.29v2.26a1.31,1.31,0,0,0,1.31,1.3h44.48a1.31,1.31,0,0,0,1.31-1.3V48.17A1.3,1.3,0,0,0,1170.74,46.88Z"/><path class="cls-2" d="M1162.79,413h-44.48a1.3,1.3,0,0,0-1.31,1.3V453a.79.79,0,0,0,0,.13,1.11,1.11,0,0,0,0,.25.88.88,0,0,0,.1.22,1.37,1.37,0,0,0,.13.2,1.21,1.21,0,0,0,.2.19l.09.09a.38.38,0,0,0,.1,0,1.22,1.22,0,0,0,.24.1l.26,0,.11,0h44.49a1.42,1.42,0,0,0,.54-.12h0a.88.88,0,0,0,.15-.12.92.92,0,0,0,.22-.17.9.9,0,0,0,.14-.2,1.48,1.48,0,0,0,.13-.21,1.26,1.26,0,0,0,0-.28,1,1,0,0,0,0-.17V414.29A1.3,1.3,0,0,0,1162.79,413Zm-1.14,34.5-11.84-23.59a1.3,1.3,0,0,0-2.29-.06L1138,440.51l-6.59-6.57a1.27,1.27,0,0,0-1.06-.37,1.31,1.31,0,0,0-1,.58l-9.3,14.43V415.43h41.59V447.5Z"/><ellipse class="cls-2" cx="1131.5" cy="424.73" rx="6.53" ry="6.48"/><path class="cls-2" d="M1178.69,431.19h-2.89a1.3,1.3,0,0,0-1.3,1.3v28.77a3.91,3.91,0,0,1-3.92,3.89h-36.37a1.3,1.3,0,0,0-1.31,1.29v2.26a1.31,1.31,0,0,0,1.31,1.3h44.48a1.3,1.3,0,0,0,1.31-1.3V432.49A1.31,1.31,0,0,0,1178.69,431.19Z"/><path class="cls-2" d="M1170.74,420.88h-2.89a1.31,1.31,0,0,0-1.31,1.3v31.2a3.9,3.9,0,0,1-3.92,3.89h-36.36a1.3,1.3,0,0,0-1.31,1.29v2.26a1.31,1.31,0,0,0,1.31,1.3h44.48a1.31,1.31,0,0,0,1.31-1.3V422.17A1.3,1.3,0,0,0,1170.74,420.88Z"/><path class="cls-2" d="M1175,236.75a7.61,7.61,0,0,0-5.44,2.32,36.59,36.59,0,0,0-19.71-6.17l4-18.2,12.68,2.89a5.69,5.69,0,0,0,5.63,5.72,5.79,5.79,0,1,0-5.07-8.38l-14-3.14a1.34,1.34,0,0,0-1.58,1l-4.37,20.07a37,37,0,0,0-19.59,6.24,7.59,7.59,0,0,0-5.52-2.38c-8,0-10.6,10.88-3.28,14.6a16.41,16.41,0,0,0-.38,3.6c0,12.22,13.56,22.12,30.22,22.12s30.29-9.9,30.29-22.12a14.33,14.33,0,0,0-.44-3.66c7.17-3.74,4.53-14.54-3.42-14.54Zm-44.67,15.37a5.67,5.67,0,1,1,5.71,5.72,5.73,5.73,0,0,1-5.71-5.72Zm30.79,13.63c-5.23,5.3-20,5.3-25.22,0a1.38,1.38,0,0,1,1.9-2c4,4.16,17.24,4.23,21.41,0a1.38,1.38,0,0,1,1.91,2Zm-.11-7.9a5.75,5.75,0,1,1,5.7-5.72A5.69,5.69,0,0,1,1161,257.85Z"/><path class="cls-2" d="M1168,609.75a7.61,7.61,0,0,0-5.44,2.32,36.59,36.59,0,0,0-19.71-6.17l4-18.2,12.68,2.89a5.69,5.69,0,0,0,5.63,5.72,5.79,5.79,0,1,0-5.07-8.38l-14-3.14a1.34,1.34,0,0,0-1.58,1l-4.37,20.07a37,37,0,0,0-19.59,6.24,7.59,7.59,0,0,0-5.52-2.38c-8,0-10.6,10.88-3.28,14.6a16.41,16.41,0,0,0-.38,3.6c0,12.22,13.56,22.12,30.22,22.12s30.29-9.9,30.29-22.12a14.33,14.33,0,0,0-.44-3.66c7.17-3.74,4.53-14.54-3.42-14.54Zm-44.67,15.37a5.67,5.67,0,1,1,5.71,5.72,5.73,5.73,0,0,1-5.71-5.72Zm30.79,13.63c-5.23,5.3-20,5.3-25.22,0a1.38,1.38,0,0,1,1.9-2c4,4.16,17.24,4.23,21.41,0a1.38,1.38,0,0,1,1.91,2Zm-.11-7.9a5.75,5.75,0,1,1,5.7-5.72A5.69,5.69,0,0,1,1154,630.85Z"/><path class="cls-2" d="M1296.79,115h-44.48a1.3,1.3,0,0,0-1.31,1.3V155a.79.79,0,0,0,0,.13,1.11,1.11,0,0,0,0,.25.88.88,0,0,0,.1.22,1.37,1.37,0,0,0,.13.2,1.21,1.21,0,0,0,.2.19l.09.09a.38.38,0,0,0,.1,0,1.22,1.22,0,0,0,.24.1l.26.05.11,0h44.49a1.42,1.42,0,0,0,.54-.12h0a.88.88,0,0,0,.15-.12.92.92,0,0,0,.22-.17.9.9,0,0,0,.14-.2,1.48,1.48,0,0,0,.13-.21,1.26,1.26,0,0,0,0-.28,1,1,0,0,0,0-.17V116.29A1.3,1.3,0,0,0,1296.79,115Zm-1.14,34.5-11.84-23.59a1.3,1.3,0,0,0-2.29-.06L1272,142.51l-6.59-6.57a1.27,1.27,0,0,0-1.06-.37,1.31,1.31,0,0,0-1,.58l-9.3,14.43V117.43h41.59V149.5Z"/><ellipse class="cls-2" cx="1265.5" cy="126.73" rx="6.53" ry="6.48"/><path class="cls-2" d="M1312.69,133.19h-2.89a1.3,1.3,0,0,0-1.3,1.3v28.77a3.91,3.91,0,0,1-3.92,3.89h-36.37a1.3,1.3,0,0,0-1.31,1.29v2.26a1.31,1.31,0,0,0,1.31,1.3h44.48a1.3,1.3,0,0,0,1.31-1.3V134.49A1.31,1.31,0,0,0,1312.69,133.19Z"/><path class="cls-2" d="M1304.74,122.88h-2.89a1.31,1.31,0,0,0-1.31,1.3v31.2a3.9,3.9,0,0,1-3.92,3.89h-36.36a1.3,1.3,0,0,0-1.31,1.29v2.26a1.31,1.31,0,0,0,1.31,1.3h44.48a1.31,1.31,0,0,0,1.31-1.3V124.17A1.3,1.3,0,0,0,1304.74,122.88Z"/><path class="cls-2" d="M1296.79,489h-44.48a1.3,1.3,0,0,0-1.31,1.3V529a.79.79,0,0,0,0,.13,1.11,1.11,0,0,0,0,.25.88.88,0,0,0,.1.22,1.37,1.37,0,0,0,.13.2,1.21,1.21,0,0,0,.2.19l.09.09a.38.38,0,0,0,.1,0,1.22,1.22,0,0,0,.24.1l.26.05.11,0h44.49a1.42,1.42,0,0,0,.54-.12h0a.88.88,0,0,0,.15-.12.92.92,0,0,0,.22-.17.9.9,0,0,0,.14-.2,1.48,1.48,0,0,0,.13-.21,1.26,1.26,0,0,0,0-.28,1,1,0,0,0,0-.17V490.29A1.3,1.3,0,0,0,1296.79,489Zm-1.14,34.5-11.84-23.59a1.3,1.3,0,0,0-2.29-.06L1272,516.51l-6.59-6.57a1.27,1.27,0,0,0-1.06-.37,1.31,1.31,0,0,0-1,.58l-9.3,14.43V491.43h41.59V523.5Z"/><ellipse class="cls-2" cx="1265.5" cy="500.73" rx="6.53" ry="6.48"/><path class="cls-2" d="M1312.69,507.19h-2.89a1.3,1.3,0,0,0-1.3,1.3v28.77a3.91,3.91,0,0,1-3.92,3.89h-36.37a1.3,1.3,0,0,0-1.31,1.29v2.26a1.31,1.31,0,0,0,1.31,1.3h44.48a1.3,1.3,0,0,0,1.31-1.3V508.49A1.31,1.31,0,0,0,1312.69,507.19Z"/><path class="cls-2" d="M1304.74,496.88h-2.89a1.31,1.31,0,0,0-1.31,1.3v31.2a3.9,3.9,0,0,1-3.92,3.89h-36.36a1.3,1.3,0,0,0-1.31,1.29v2.26a1.31,1.31,0,0,0,1.31,1.3h44.48a1.31,1.31,0,0,0,1.31-1.3V498.17A1.3,1.3,0,0,0,1304.74,496.88Z"/><path class="cls-2" d="M1309,312.75a7.61,7.61,0,0,0-5.44,2.32,36.59,36.59,0,0,0-19.71-6.17l4-18.2,12.68,2.89a5.69,5.69,0,0,0,5.63,5.72,5.79,5.79,0,1,0-5.07-8.38l-14-3.14a1.34,1.34,0,0,0-1.58,1l-4.37,20.07a37,37,0,0,0-19.59,6.24,7.59,7.59,0,0,0-5.52-2.38c-8,0-10.6,10.88-3.28,14.6a16.41,16.41,0,0,0-.38,3.6c0,12.22,13.56,22.12,30.22,22.12s30.29-9.9,30.29-22.12a14.33,14.33,0,0,0-.44-3.66c7.17-3.74,4.53-14.54-3.42-14.54Zm-44.67,15.37a5.67,5.67,0,1,1,5.71,5.72,5.73,5.73,0,0,1-5.71-5.72Zm30.79,13.63c-5.23,5.3-20,5.3-25.22,0a1.38,1.38,0,0,1,1.9-2c4,4.16,17.24,4.23,21.41,0a1.38,1.38,0,0,1,1.91,2Zm-.11-7.9a5.75,5.75,0,1,1,5.7-5.72A5.69,5.69,0,0,1,1295,333.85Z"/><path class="cls-2" d="M1302,685.75a7.61,7.61,0,0,0-5.44,2.32,36.59,36.59,0,0,0-19.71-6.17l4-18.2,12.68,2.89a5.69,5.69,0,0,0,5.63,5.72,5.79,5.79,0,1,0-5.07-8.38l-14-3.14a1.34,1.34,0,0,0-1.58,1l-4.37,20.07a37,37,0,0,0-19.59,6.24,7.59,7.59,0,0,0-5.52-2.38c-8,0-10.6,10.88-3.28,14.6a16.41,16.41,0,0,0-.38,3.6c0,12.22,13.56,22.12,30.22,22.12s30.29-9.9,30.29-22.12a14.33,14.33,0,0,0-.44-3.66c7.17-3.74,4.53-14.54-3.42-14.54Zm-44.67,15.37a5.67,5.67,0,1,1,5.71,5.72,5.73,5.73,0,0,1-5.71-5.72Zm30.79,13.63c-5.23,5.3-20,5.3-25.22,0a1.38,1.38,0,0,1,1.9-2c4,4.16,17.24,4.23,21.41,0a1.38,1.38,0,0,1,1.91,2Zm-.11-7.9a5.75,5.75,0,1,1,5.7-5.72A5.69,5.69,0,0,1,1288,706.85Z"/></g></g></svg>